<?xml version="1.0" standalone="no"?>
<!DOCTYPE svg PUBLIC "-//W3C//DTD SVG 20010904//EN"
 "http://www.w3.org/TR/2001/REC-SVG-20010904/DTD/svg10.dtd">
<svg version="1.0" xmlns="http://www.w3.org/2000/svg"
 width="512.000000pt" height="512.000000pt" viewBox="0 0 512.000000 512.000000"
 preserveAspectRatio="xMidYMid meet">

<g transform="translate(0.000000,512.000000) scale(0.100000,-0.100000)"
fill="#000000" stroke="none">
<path d="M2432 5014 c-29 -7 -67 -21 -85 -30 -89 -46 -1788 -1031 -1829 -1061
-50 -36 -102 -101 -137 -172 -50 -99 -51 -103 -51 -1206 0 -1130 -1 -1104 61
-1226 62 -125 62 -124 1044 -690 495 -286 925 -529 955 -541 75 -30 241 -32
315 -4 28 10 457 253 955 540 983 566 992 572 1054 694 58 114 56 73 56 1227
0 1154 2 1113 -56 1227 -62 122 -72 129 -1044 688 -492 283 -910 522 -931 531
-87 40 -212 49 -307 23z"/>
</g>
</svg>
